<svg width="12" height="12" viewBox="0 0 12 12" fill="none" xmlns="http://www.w3.org/2000/svg">
<path d="M7.12783 11.2501C6.9202 11.2501 6.75289 11.0828 6.75289 10.8752V5.25114C6.75289 5.15842 6.78716 5.06771 6.84965 4.99917L9.29682 2.25165H2.70115L5.15235 5.00118C5.21283 5.06972 5.2471 5.15842 5.2471 5.25114V8.63565L5.84377 9.11743C6.00503 9.24845 6.02922 9.4843 5.90021 9.64557C5.7712 9.80683 5.53334 9.83102 5.37207 9.70201L4.63631 9.10332C4.54762 9.03276 4.49722 8.92391 4.49722 8.81103V5.39225L1.5844 2.12465C1.48563 2.01378 1.46144 1.85655 1.52192 1.72149C1.58239 1.58643 1.71745 1.49976 1.8646 1.49976H10.1414C10.2906 1.49976 10.4236 1.58643 10.4841 1.72351C10.5446 1.85857 10.5184 2.01781 10.4196 2.12667L7.50276 5.39426V10.8752C7.50276 11.0828 7.33545 11.2501 7.12783 11.2501Z" fill="#0369A1"/>
</svg>
